<?xml version="1.0" encoding="utf-8"?>
<svg width="300px" height="301.5px" viewBox="0 0 300 301.5" version="1.1" xmlns:xlink="http://www.w3.org/1999/xlink" xmlns="http://www.w3.org/2000/svg">
  <defs>
    <filter filterUnits="userSpaceOnUse" color-interpolation-filters="sRGB" id="filter_1">
      <feFlood flood-opacity="0" result="BackgroundImageFix" />
      <feColorMatrix in="SourceAlpha" type="matrix" values="0 0 0 0 0 0 0 0 0 0 0 0 0 0 0 0 0 0 128 0" />
      <feOffset dx="0" dy="2" />
      <feGaussianBlur stdDeviation="2" />
      <feColorMatrix type="matrix" values="0 0 0 0 0.39215687 0 0 0 0 0.39215687 0 0 0 0 0.39215687 0 0 0 0.21176471 0" />
      <feBlend mode="normal" in2="BackgroundImageFix" result="effect0_dropShadow" />
      <feBlend mode="normal" in="SourceGraphic" in2="effect0_dropShadow" result="shape" />
    </filter>
    <filter filterUnits="userSpaceOnUse" color-interpolation-filters="sRGB" id="filter_2">
      <feFlood flood-opacity="0" result="BackgroundImageFix" />
      <feColorMatrix in="SourceAlpha" type="matrix" values="0 0 0 0 0 0 0 0 0 0 0 0 0 0 0 0 0 0 128 0" />
      <feOffset dx="0" dy="2" />
      <feGaussianBlur stdDeviation="2.5" />
      <feColorMatrix type="matrix" values="0 0 0 0 0.39215687 0 0 0 0 0.39215687 0 0 0 0 0.39215687 0 0 0 0.2 0" />
      <feBlend mode="normal" in2="BackgroundImageFix" result="effect0_dropShadow" />
      <feBlend mode="normal" in="SourceGraphic" in2="effect0_dropShadow" result="shape" />
    </filter>
    <path d="M250 0C277.618 0 300 22.382 300 50L300 250C300 277.618 277.618 300 250 300L50 300C22.382 300 0 277.618 0 250L0 50C0 22.382 22.382 0 50 0L250 0Z" id="path_1" />
    <path d="M217 30C220.314 30 223 32.6858 223 36L223 247C223 250.314 220.314 253 217 253L38 253C34.6858 253 32 250.314 32 247L32 36C32 32.6858 34.6858 30 38 30L217 30Z" id="path_2" />
    <path d="M107 0C109.762 0 112 2.2382 112 5L112 135C112 137.762 109.762 140 107 140L5 140C2.2382 140 0 137.762 0 135L0 5C0 2.2382 2.2382 0 5 0L107 0Z" id="path_3" />
    <path d="M23 203C27.9712 203 32 207.029 32 212L32 225C32 229.971 27.9712 234 23 234L9 234C4.02876 234 0 229.971 0 225L0 212C0 207.029 4.02876 203 9 203L23 203Z" id="path_4" />
    <clipPath id="clip_1">
      <use xlink:href="#path_1" />
    </clipPath>
    <clipPath id="clip_2">
      <use xlink:href="#path_2" />
    </clipPath>
    <clipPath id="clip_3">
      <use xlink:href="#path_3" />
    </clipPath>
    <clipPath id="clip_4">
      <use xlink:href="#path_4" />
    </clipPath>
  </defs>
  <g id="img">
    <g id="Rectangle">
      <use stroke="none" fill="#F9F9F9" xlink:href="#path_1" />
      <g clip-path="url(#clip_1)">
        <use xlink:href="#path_1" fill="none" stroke="#42B983" stroke-width="16" />
      </g>
    </g>
    <g id="awesome-text" transform="translate(147 19)">
      <g id="Awesome-README-Profile-Preview">
        <g id="Awesome-README-" fill="#42B983" filter="url(#filter_1)">
          <path d="M2.26278 11.625L0.285511 11.625L3.2983 2.89773L5.67614 2.89773L8.68466 11.625L6.70739 11.625L6.05966 9.63494L2.91051 9.63494L2.26278 11.625ZM3.37926 8.1946L5.59517 8.1946L4.52131 4.89205L4.45313 4.89205L3.37926 8.1946ZM10.1719 11.625L8.39063 5.07955L10.2273 5.07955L11.2415 9.47727L11.3011 9.47727L12.358 5.07955L14.1605 5.07955L15.2344 9.4517L15.2898 9.4517L16.2869 5.07955L18.1193 5.07955L16.3423 11.625L14.4205 11.625L13.2955 7.50852L13.2145 7.50852L12.0895 11.625L10.1719 11.625ZM21.9034 11.7528Q20.8977 11.7528 20.169 11.3416Q19.4403 10.9304 19.0483 10.174Q18.6563 9.41761 18.6563 8.3821Q18.6563 7.37216 19.0483 6.60938Q19.4403 5.84659 20.1541 5.42045Q20.8679 4.99432 21.831 4.99432Q22.696 4.99432 23.3928 5.3608Q24.0895 5.72727 24.4986 6.46662Q24.9077 7.20597 24.9077 8.31818L24.9077 8.81676L20.4503 8.81676L20.4503 8.82102Q20.4503 9.55398 20.8509 9.97585Q21.2514 10.3977 21.9332 10.3977Q22.3892 10.3977 22.7216 10.206Q23.054 10.0142 23.1903 9.6392L24.8693 9.75Q24.6776 10.6619 23.8977 11.2074Q23.1179 11.7528 21.9034 11.7528ZM20.4503 7.69176L23.1989 7.69176Q23.1946 7.10795 22.8239 6.72869Q22.4531 6.34943 21.8608 6.34943Q21.2557 6.34943 20.8679 6.74148Q20.4801 7.13352 20.4503 7.69176ZM31.5384 6.94602L29.8764 7.0483Q29.8082 6.73295 29.5313 6.5071Q29.2543 6.28125 28.7813 6.28125Q28.3594 6.28125 28.0675 6.4581Q27.7756 6.63494 27.7798 6.92898Q27.7756 7.16335 27.9652 7.32528Q28.1548 7.48722 28.6108 7.58523L29.7955 7.82386Q31.6832 8.21165 31.6875 9.59659Q31.6875 10.2401 31.3104 10.7259Q30.9332 11.2116 30.277 11.4822Q29.6207 11.7528 28.7727 11.7528Q27.473 11.7528 26.7017 11.2095Q25.9304 10.6662 25.8026 9.72869L27.5881 9.63494Q27.6733 10.0355 27.9822 10.2401Q28.2912 10.4446 28.777 10.4446Q29.2543 10.4446 29.5462 10.2571Q29.8381 10.0696 29.8423 9.77983Q29.8295 9.29403 29.0028 9.12784L27.8693 8.90199Q25.9688 8.52273 25.9773 7.03125Q25.973 6.08523 26.7337 5.53977Q27.4943 4.99432 28.7514 4.99432Q29.9915 4.99432 30.7053 5.51847Q31.419 6.04261 31.5384 6.94602ZM35.7912 11.7528Q34.7983 11.7528 34.076 11.3288Q33.3537 10.9048 32.9616 10.1442Q32.5696 9.38352 32.5696 8.37784Q32.5696 7.36364 32.9616 6.60298Q33.3537 5.84233 34.076 5.41832Q34.7983 4.99432 35.7912 4.99432Q36.7841 4.99432 37.5064 5.41832Q38.2287 5.84233 38.6207 6.60298Q39.0128 7.36364 39.0128 8.37784Q39.0128 9.38352 38.6207 10.1442Q38.2287 10.9048 37.5064 11.3288Q36.7841 11.7528 35.7912 11.7528ZM35.7997 10.3466Q36.473 10.3466 36.8203 9.78409Q37.1676 9.22159 37.1676 8.36506Q37.1676 7.50852 36.8203 6.94389Q36.473 6.37926 35.7997 6.37926Q35.1136 6.37926 34.7642 6.94389Q34.4148 7.50852 34.4148 8.36506Q34.4148 9.22159 34.7642 9.78409Q35.1136 10.3466 35.7997 10.3466ZM40.1974 11.625L40.1974 5.07955L41.9276 5.07955L41.9276 6.23438L42.0043 6.23438Q42.2088 5.65483 42.6882 5.32457Q43.1676 4.99432 43.8281 4.99432Q44.5014 4.99432 44.9744 5.32883Q45.4474 5.66335 45.6051 6.23438L45.6733 6.23438Q45.8736 5.67188 46.3999 5.3331Q46.9261 4.99432 47.6463 4.99432Q48.5625 4.99432 49.1357 5.57599Q49.7088 6.15767 49.7088 7.22301L49.7088 11.625L47.8977 11.625L47.8977 7.58097Q47.8977 7.03551 47.608 6.76278Q47.3182 6.49006 46.8835 6.49006Q46.3892 6.49006 46.1122 6.8054Q45.8352 7.12074 45.8352 7.62784L45.8352 11.625L44.0753 11.625L44.0753 7.54261Q44.0753 7.06108 43.8004 6.77557Q43.5256 6.49006 43.0781 6.49006Q42.6264 6.49006 42.3196 6.82031Q42.0128 7.15057 42.0128 7.69602L42.0128 11.625L40.1974 11.625ZM54.1236 11.7528Q53.1179 11.7528 52.3892 11.3416Q51.6605 10.9304 51.2685 10.174Q50.8764 9.41761 50.8764 8.3821Q50.8764 7.37216 51.2685 6.60938Q51.6605 5.84659 52.3743 5.42045Q53.0881 4.99432 54.0511 4.99432Q54.9162 4.99432 55.6129 5.3608Q56.3097 5.72727 56.7188 6.46662Q57.1278 7.20597 57.1278 8.31818L57.1278 8.81676L52.6705 8.81676L52.6705 8.82102Q52.6705 9.55398 53.071 9.97585Q53.4716 10.3977 54.1534 10.3977Q54.6094 10.3977 54.9418 10.206Q55.2741 10.0142 55.4105 9.6392L57.0895 9.75Q56.8977 10.6619 56.1179 11.2074Q55.3381 11.7528 54.1236 11.7528ZM52.6705 7.69176L55.419 7.69176Q55.4148 7.10795 55.044 6.72869Q54.6733 6.34943 54.081 6.34943Q53.4758 6.34943 53.0881 6.74148Q52.7003 7.13352 52.6705 7.69176ZM61.1293 11.625L61.1293 2.89773L64.5724 2.89773Q66.0597 2.89773 66.88 3.6733Q67.7003 4.44886 67.7003 5.74858Q67.7003 6.64347 67.3018 7.27841Q66.9034 7.91335 66.1577 8.23295L68.0114 11.625L65.9744 11.625L64.321 8.53125L62.9744 8.53125L62.9744 11.625L61.1293 11.625ZM62.9744 7.0483L64.2273 7.0483Q65.7997 7.0483 65.7997 5.74858Q65.7997 4.40625 64.2188 4.40625L62.9744 4.40625L62.9744 7.0483ZM69.0043 11.625L69.0043 2.89773L74.8849 2.89773L74.8849 4.41903L70.8494 4.41903L70.8494 6.49858L74.5824 6.49858L74.5824 8.01989L70.8494 8.01989L70.8494 10.1037L74.902 10.1037L74.902 11.625L69.0043 11.625ZM77.8594 11.625L75.8821 11.625L78.8949 2.89773L81.2727 2.89773L84.2813 11.625L82.304 11.625L81.6563 9.63494L78.5071 9.63494L77.8594 11.625ZM78.9759 8.1946L81.1918 8.1946L80.1179 4.89205L80.0497 4.89205L78.9759 8.1946ZM88.4233 11.625L85.3295 11.625L85.3295 2.89773L88.4489 2.89773Q89.7656 2.89773 90.718 3.41974Q91.6705 3.94176 92.1818 4.91761Q92.6932 5.89347 92.6932 7.25284Q92.6932 8.61648 92.1797 9.59659Q91.6662 10.5767 90.7095 11.1009Q89.7528 11.625 88.4233 11.625ZM87.1747 10.044L88.3466 10.044Q89.5781 10.044 90.2152 9.37926Q90.8523 8.71449 90.8523 7.25284Q90.8523 5.79972 90.2152 5.1392Q89.5781 4.47869 88.3509 4.47869L87.1747 4.47869L87.1747 10.044ZM94.0568 2.89773L96.3324 2.89773L98.7358 8.76136L98.8381 8.76136L101.241 2.89773L103.517 2.89773L103.517 11.625L101.727 11.625L101.727 5.9446L101.655 5.9446L99.3963 11.5824L98.1776 11.5824L95.919 5.9233L95.8466 5.9233L95.8466 11.625L94.0568 11.625L94.0568 2.89773ZM105.034 11.625L105.034 2.89773L110.915 2.89773L110.915 4.41903L106.879 4.41903L106.879 6.49858L110.612 6.49858L110.612 8.01989L106.879 8.01989L106.879 10.1037L110.932 10.1037L110.932 11.625L105.034 11.625Z" />
        </g>
        <g transform="translate(0, 14.522727)" id="Profile-Preview" fill="#42B983" filter="url(#filter_1)">
          <path d="M0.758523 11.625L0.758523 2.89773L4.2017 2.89773Q5.1946 2.89773 5.89347 3.27486Q6.59233 3.65199 6.96094 4.31889Q7.32955 4.9858 7.32955 5.85511Q7.32955 6.72443 6.95455 7.38707Q6.57955 8.04972 5.87003 8.42258Q5.16051 8.79545 4.15483 8.79545L2.60369 8.79545L2.60369 11.625L0.758523 11.625ZM2.60369 7.31676L3.85653 7.31676Q4.64915 7.31676 5.03906 6.9098Q5.42898 6.50284 5.42898 5.85511Q5.42898 5.20313 5.03906 4.80469Q4.64915 4.40625 3.84801 4.40625L2.60369 4.40625L2.60369 7.31676ZM8.49716 11.625L8.49716 5.07955L10.2571 5.07955L10.2571 6.22159L10.3253 6.22159Q10.5043 5.61222 10.9261 5.29901Q11.348 4.9858 11.8977 4.9858Q12.2003 4.9858 12.4688 5.04972L12.4688 6.66051Q12.3409 6.6179 12.1151 6.5902Q11.8892 6.5625 11.7017 6.5625Q11.1009 6.5625 10.7067 6.93963Q10.3125 7.31676 10.3125 7.92188L10.3125 11.625L8.49716 11.625ZM16.0526 11.7528Q15.0597 11.7528 14.3374 11.3288Q13.6151 10.9048 13.223 10.1442Q12.831 9.38352 12.831 8.37784Q12.831 7.36364 13.223 6.60298Q13.6151 5.84233 14.3374 5.41832Q15.0597 4.99432 16.0526 4.99432Q17.0455 4.99432 17.7678 5.41832Q18.4901 5.84233 18.8821 6.60298Q19.2741 7.36364 19.2741 8.37784Q19.2741 9.38352 18.8821 10.1442Q18.4901 10.9048 17.7678 11.3288Q17.0455 11.7528 16.0526 11.7528ZM16.0611 10.3466Q16.7344 10.3466 17.0817 9.78409Q17.429 9.22159 17.429 8.36506Q17.429 7.50852 17.0817 6.94389Q16.7344 6.37926 16.0611 6.37926Q15.375 6.37926 15.0256 6.94389Q14.6761 7.50852 14.6761 8.36506Q14.6761 9.22159 15.0256 9.78409Q15.375 10.3466 16.0611 10.3466ZM23.9787 5.07955L23.9787 6.44318L22.679 6.44318L22.679 11.625L20.8636 11.625L20.8636 6.44318L19.9389 6.44318L19.9389 5.07955L20.8636 5.07955L20.8636 4.60653Q20.8636 3.53693 21.4751 3.01278Q22.0866 2.48864 23.0114 2.48864Q23.429 2.48864 23.7763 2.55256Q24.1236 2.61648 24.294 2.66761L23.9744 4.03125Q23.8679 3.99716 23.7102 3.96733Q23.5526 3.9375 23.3906 3.9375Q22.9901 3.9375 22.8345 4.12287Q22.679 4.30824 22.679 4.64063L22.679 5.07955L23.9787 5.07955ZM25.0866 11.625L25.0866 5.07955L26.902 5.07955L26.902 11.625L25.0866 11.625ZM25.9986 4.2358Q25.598 4.2358 25.3082 3.9652Q25.0185 3.6946 25.0185 3.31534Q25.0185 2.93608 25.3082 2.66761Q25.598 2.39915 25.9986 2.39915Q26.4034 2.39915 26.6932 2.66761Q26.983 2.93608 26.983 3.31534Q26.983 3.6946 26.6932 3.9652Q26.4034 4.2358 25.9986 4.2358ZM30.1662 2.89773L30.1662 11.625L28.3509 11.625L28.3509 2.89773L30.1662 2.89773ZM34.598 11.7528Q33.5923 11.7528 32.8636 11.3416Q32.1349 10.9304 31.7429 10.174Q31.3509 9.41761 31.3509 8.3821Q31.3509 7.37216 31.7429 6.60938Q32.1349 5.84659 32.8487 5.42045Q33.5625 4.99432 34.5256 4.99432Q35.3906 4.99432 36.0874 5.3608Q36.7841 5.72727 37.1932 6.46662Q37.6023 7.20597 37.6023 8.31818L37.6023 8.81676L33.1449 8.81676L33.1449 8.82102Q33.1449 9.55398 33.5455 9.97585Q33.946 10.3977 34.6278 10.3977Q35.0838 10.3977 35.4162 10.206Q35.7486 10.0142 35.8849 9.6392L37.5639 9.75Q37.3722 10.6619 36.5923 11.2074Q35.8125 11.7528 34.598 11.7528ZM33.1449 7.69176L35.8935 7.69176Q35.8892 7.10795 35.5185 6.72869Q35.1477 6.34943 34.5554 6.34943Q33.9503 6.34943 33.5625 6.74148Q33.1747 7.13352 33.1449 7.69176ZM41.6037 11.625L41.6037 2.89773L45.0469 2.89773Q46.0398 2.89773 46.7386 3.27486Q47.4375 3.65199 47.8061 4.31889Q48.1747 4.9858 48.1747 5.85511Q48.1747 6.72443 47.7997 7.38707Q47.4247 8.04972 46.7152 8.42258Q46.0057 8.79545 45 8.79545L43.4489 8.79545L43.4489 11.625L41.6037 11.625ZM43.4489 7.31676L44.7017 7.31676Q45.4943 7.31676 45.8842 6.9098Q46.2741 6.50284 46.2741 5.85511Q46.2741 5.20313 45.8842 4.80469Q45.4943 4.40625 44.6932 4.40625L43.4489 4.40625L43.4489 7.31676ZM49.3423 11.625L49.3423 5.07955L51.1023 5.07955L51.1023 6.22159L51.1705 6.22159Q51.3494 5.61222 51.7713 5.29901Q52.1932 4.9858 52.7429 4.9858Q53.0455 4.9858 53.3139 5.04972L53.3139 6.66051Q53.1861 6.6179 52.9602 6.5902Q52.7344 6.5625 52.5469 6.5625Q51.946 6.5625 51.5518 6.93963Q51.1577 7.31676 51.1577 7.92188L51.1577 11.625L49.3423 11.625ZM56.9233 11.7528Q55.9176 11.7528 55.1889 11.3416Q54.4602 10.9304 54.0682 10.174Q53.6761 9.41761 53.6761 8.3821Q53.6761 7.37216 54.0682 6.60938Q54.4602 5.84659 55.174 5.42045Q55.8878 4.99432 56.8509 4.99432Q57.7159 4.99432 58.4126 5.3608Q59.1094 5.72727 59.5185 6.46662Q59.9276 7.20597 59.9276 8.31818L59.9276 8.81676L55.4702 8.81676L55.4702 8.82102Q55.4702 9.55398 55.8707 9.97585Q56.2713 10.3977 56.9531 10.3977Q57.4091 10.3977 57.7415 10.206Q58.0739 10.0142 58.2102 9.6392L59.8892 9.75Q59.6974 10.6619 58.9176 11.2074Q58.1378 11.7528 56.9233 11.7528ZM55.4702 7.69176L58.2188 7.69176Q58.2145 7.10795 57.8438 6.72869Q57.473 6.34943 56.8807 6.34943Q56.2756 6.34943 55.8878 6.74148Q55.5 7.13352 55.4702 7.69176ZM67.0313 5.07955L64.7429 11.625L62.6974 11.625L60.4091 5.07955L62.3267 5.07955L63.6861 9.76278L63.7543 9.76278L65.1094 5.07955L67.0313 5.07955ZM67.9602 11.625L67.9602 5.07955L69.7756 5.07955L69.7756 11.625L67.9602 11.625ZM68.8722 4.2358Q68.4716 4.2358 68.1818 3.9652Q67.892 3.6946 67.892 3.31534Q67.892 2.93608 68.1818 2.66761Q68.4716 2.39915 68.8722 2.39915Q69.277 2.39915 69.5668 2.66761Q69.8565 2.93608 69.8565 3.31534Q69.8565 3.6946 69.5668 3.9652Q69.277 4.2358 68.8722 4.2358ZM74.2074 11.7528Q73.2017 11.7528 72.473 11.3416Q71.7443 10.9304 71.3523 10.174Q70.9602 9.41761 70.9602 8.3821Q70.9602 7.37216 71.3523 6.60938Q71.7443 5.84659 72.4581 5.42045Q73.1719 4.99432 74.1349 4.99432Q75 4.99432 75.6967 5.3608Q76.3935 5.72727 76.8026 6.46662Q77.2116 7.20597 77.2116 8.31818L77.2116 8.81676L72.7543 8.81676L72.7543 8.82102Q72.7543 9.55398 73.1548 9.97585Q73.5554 10.3977 74.2372 10.3977Q74.6932 10.3977 75.0256 10.206Q75.358 10.0142 75.4943 9.6392L77.1733 9.75Q76.9815 10.6619 76.2017 11.2074Q75.4219 11.7528 74.2074 11.7528ZM72.7543 7.69176L75.5028 7.69176Q75.4986 7.10795 75.1278 6.72869Q74.7571 6.34943 74.1648 6.34943Q73.5597 6.34943 73.1719 6.74148Q72.7841 7.13352 72.7543 7.69176ZM79.6364 11.625L77.8551 5.07955L79.6918 5.07955L80.706 9.47727L80.7656 9.47727L81.8224 5.07955L83.625 5.07955L84.6989 9.4517L84.7543 9.4517L85.7514 5.07955L87.5838 5.07955L85.8068 11.625L83.8849 11.625L82.7599 7.50852L82.679 7.50852L81.554 11.625L79.6364 11.625Z" />
        </g>
      </g>
      <g id="by-LIGMATV" transform="translate(0 30)">
        <g id="by--LIGMATV" fill="#07BBBC" filter="url(#filter_1)">
          <path d="M0.758523 11.625L0.758523 2.89773L2.57386 2.89773L2.57386 6.17898L2.62926 6.17898Q2.75284 5.91051 2.97869 5.63778Q3.20455 5.36506 3.57528 5.17969Q3.94602 4.99432 4.49148 4.99432Q5.21165 4.99432 5.8125 5.36719Q6.41335 5.74006 6.7777 6.48793Q7.14205 7.2358 7.14205 8.3608Q7.14205 9.45597 6.78835 10.2081Q6.43466 10.9602 5.83381 11.3459Q5.23295 11.7315 4.48722 11.7315Q3.95881 11.7315 3.5902 11.5568Q3.22159 11.3821 2.98935 11.1158Q2.7571 10.8494 2.62926 10.5767L2.5483 10.5767L2.5483 11.625L0.758523 11.625ZM2.53551 8.35227Q2.53551 9.22585 2.8956 9.75639Q3.25568 10.2869 3.91193 10.2869Q4.58097 10.2869 4.93466 9.74787Q5.28835 9.20881 5.28835 8.35227Q5.28835 7.5 4.93679 6.96946Q4.58523 6.43892 3.91193 6.43892Q3.25142 6.43892 2.89347 6.95668Q2.53551 7.47443 2.53551 8.35227ZM9.25142 14.0795Q8.90625 14.0795 8.60582 14.0263Q8.3054 13.973 8.10938 13.892L8.51847 12.5369Q9 12.6818 9.33665 12.6158Q9.6733 12.5497 9.85227 12.0895L9.95881 11.8125L7.6108 5.07955L9.51989 5.07955L10.875 9.88636L10.9432 9.88636L12.3111 5.07955L14.233 5.07955L11.6889 12.3324Q11.4119 13.125 10.8388 13.6023Q10.2656 14.0795 9.25142 14.0795Z" />
        </g>
        <g transform="translate(17.220171, 0)" id="by--LIGMATV" fill="#07BBBC" filter="url(#filter_1)">
          <path d="M2.088 6.936L5.436 6.936L5.436 7.644L0 7.644L0 0.204L0.708 0.204L0.708 6.936L1.38 6.936L1.38 0.204L2.088 0.204L2.088 6.936ZM0 9L0 8.292L5.436 8.292L5.436 9L0 9ZM7.188 9L6.48 9L6.48 0.204L7.188 0.204L7.188 9ZM8.544 9L7.836 9L7.836 0.204L8.544 0.204L8.544 9ZM17.652 4.284L17.652 4.884L17.652 5.028L17.652 7.308L17.616 7.308L17.628 7.32L17.652 7.308Q17.34 7.704 16.944 8.016L16.944 7.308L16.944 7.056L16.944 5.028L14.412 5.028L14.412 4.284L17.652 4.284ZM16.392 6.708L16.38 6.708L16.38 7.56L16.38 8.124L16.38 8.4Q15.876 8.688 15.3 8.85Q14.724 9.012 14.088 9.012C13.464 9.012 12.878 8.896 12.33 8.664Q11.508 8.316 10.896 7.716Q10.284 7.116 9.93 6.318Q9.576 5.52 9.576 4.608Q9.576 3.696 9.93 2.892Q10.284 2.088 10.896 1.494Q11.508 0.9 12.33 0.551999Q13.152 0.204 14.088 0.204Q15.012 0.204 15.822 0.539719Q16.632 0.875437 17.244 1.464L16.752 1.968Q16.236 1.476 15.558 1.194Q14.88 0.912001 14.088 0.912Q13.296 0.912 12.606 1.20553Q11.916 1.49906 11.4 2.00222Q10.884 2.50537 10.584 3.17634Q10.284 3.84731 10.284 4.614Q10.284 5.38069 10.584 6.05166Q10.884 6.72263 11.4 7.22578Q11.916 7.72894 12.606 8.01647Q13.296 8.304 14.088 8.304Q14.94 8.304 15.696 7.956L15.696 7.248Q15.348 7.452 14.94 7.566Q14.532 7.68 14.088 7.68Q13.44 7.68 12.87 7.44Q12.3 7.2 11.868 6.78Q11.436 6.36 11.19 5.802Q10.944 5.244 10.944 4.608Q10.944 3.972 11.19 3.414Q11.436 2.856 11.868 2.436Q12.3 2.016 12.87 1.776Q13.44 1.536 14.088 1.536Q14.736 1.536 15.306 1.77Q15.876 2.004 16.308 2.424L15.816 2.928Q15.48 2.616 15.036 2.43Q14.592 2.244 14.088 2.244Q13.584 2.244 13.14 2.43Q12.696 2.616 12.366 2.934Q12.036 3.252 11.844 3.684Q11.652 4.116 11.652 4.608Q11.652 5.1 11.844 5.526Q12.036 5.952 12.366 6.276Q12.696 6.6 13.14 6.786Q13.584 6.972 14.088 6.972Q14.556 6.972 14.964 6.816Q15.372 6.66 15.696 6.384L15.696 6.336L14.412 6.336L14.412 5.592L15.696 5.592L16.38 5.592L16.38 6.336L16.38 6.588L16.38 6.696L16.392 6.708ZM19.716 4.668L19.716 3.612L23.568 7.896L23.088 8.424L20.424 5.448L20.424 9L19.716 9L19.716 7.14L19.716 4.668ZM23.088 5.388L27.804 0.204L27.804 9L27.096 9L27.096 3.996L26.472 4.692L26.472 9L25.764 9L25.764 5.46L23.988 7.416L19.08 2.016L19.08 2.82L19.08 2.904L19.08 3.96L19.08 7.14L19.08 9L18.372 9L18.372 0.204L23.088 5.388ZM27.096 2.952L27.096 2.016L23.556 5.904L23.988 6.372L27.096 2.952ZM31.392 9L30.564 9L31.536 7.296L37.656 7.296L38.64 9L37.776 9L37.236 8.004L36.384 8.004L36.936 9L36.12 9L35.58 8.004L31.956 7.992L31.392 9ZM29.724 9L28.968 9L29.748 7.476L33.756 0.204L37.308 6.672L31.008 6.672L30.372 7.824L29.724 9ZM33.06 5.964L34.44 5.952L33.756 4.74L33.06 5.964ZM33.756 1.692L31.404 5.964L32.244 5.964L33.756 3.3L35.256 5.964L36.108 5.964L33.756 1.692ZM47.244 1.548L47.244 2.256L44.34 2.256L44.34 9L43.632 9L43.632 2.256L43.632 1.548L44.34 1.548L47.244 1.548ZM39.384 0.912L39.384 0.204L42.288 0.204L42.996 0.204L43.632 0.204L44.34 0.204L47.244 0.204L47.244 0.912L44.34 0.912L43.632 0.912L42.996 0.912L42.996 1.548L42.996 2.256L42.996 9L42.288 9L42.288 2.256L39.384 2.256L39.384 1.548L42.288 1.548L42.288 0.912L39.384 0.912ZM49.272 0.768L53.388 8.256L52.98 8.988L50.256 4.032L48.588 1.044L48.084 0.191999L48.96 0.191999L49.272 0.768ZM57 0.191999L57.768 0.191999L56.976 1.716L54.192 6.792L53.832 7.428L53.424 6.696L50.268 1.056L50.28 1.056L50.124 0.792L49.8 0.191999L50.616 0.191999L50.94 0.792L51.156 1.188L51.168 1.188L51.564 1.896L51.912 2.52L52.308 3.24L52.62 3.792L52.62 3.816L52.956 4.392L52.98 4.452L53.664 3.24L54.048 2.52L54.744 1.272L55.164 0.504L55.344 0.191999L56.16 0.191999L55.452 1.44L55.368 1.596L53.94 4.2L53.388 5.172L53.832 5.964L54.636 4.5L56.184 1.692L56.352 1.368L57 0.191999Z" />
        </g>
      </g>
    </g>
    <g id="elements" transform="translate(25 39)">
      <g id="Rectangle" filter="url(#filter_2)">
        <use stroke="none" fill="#FFFFFF" xlink:href="#path_2" />
        <g clip-path="url(#clip_2)">
          <use xlink:href="#path_2" fill="none" stroke="#DEDEDE" stroke-width="2" />
        </g>
      </g>
      <path d="M180.5 58C187.404 58 193 63.5955 193 70.5L193 70.5C193 77.4045 187.404 83 180.5 83L70.5 83C63.5955 83 58 77.4045 58 70.5L58 70.5C58 63.5955 63.5955 58 70.5 58L180.5 58Z" id="Rectangle-3" fill="#000000" stroke="none" />
      <path d="M167 99C170.314 99 173 101.686 173 105L173 105C173 108.314 170.314 111 167 111L64 111C60.6858 111 58 108.314 58 105L58 105C58 101.686 60.6858 99 64 99L167 99Z" id="Rectangle-3-Copy" fill="#000000" stroke="none" />
      <path d="M181 120C184.314 120 187 122.686 187 126L187 126C187 129.314 184.314 132 181 132L64 132C60.6858 132 58 129.314 58 126L58 126C58 122.686 60.6858 120 64 120L181 120Z" id="Rectangle-3-Copy-2" fill="#000000" stroke="none" />
      <path d="M167 141C170.314 141 173 143.686 173 147L173 147C173 150.314 170.314 153 167 153L64 153C60.6858 153 58 150.314 58 147L58 147C58 143.686 60.6858 141 64 141L167 141Z" id="Rectangle-3-Copy-3" fill="#000000" stroke="none" />
      <g id="Rectangle-2" filter="url(#filter_1)">
        <use stroke="none" fill="#FFFFFF" fill-opacity="0.92156863" xlink:href="#path_3" />
        <g clip-path="url(#clip_3)">
          <use xlink:href="#path_3" fill="none" stroke="#DCDCDC" stroke-width="2" />
        </g>
      </g>
      <g id="Rectangle-4">
        <use stroke="none" fill="#FAFBFC" xlink:href="#path_4" />
        <g clip-path="url(#clip_4)">
          <use xlink:href="#path_4" fill="none" stroke="#E3E3E3" stroke-width="2" />
        </g>
      </g>
    </g>
  </g>
</svg>